<?xml version="1.0" encoding="utf-8"?>
<!-- Generator: Adobe Illustrator 22.0.1, SVG Export Plug-In . SVG Version: 6.00 Build 0)  -->
<svg version="1.1" id="Layer_1" xmlns="http://www.w3.org/2000/svg" xmlns:xlink="http://www.w3.org/1999/xlink" x="0px" y="0px"
	 viewBox="0 0 500 500" style="enable-background:new 0 0 500 500;" xml:space="preserve">
<style type="text/css">
	.st0{display:none;}
	.st1{display:inline;fill:#37A000;}
	.st2{fill:#00a3ff;}
</style>
<g class="st0">
	<path class="st1" d="M425.2,257.7c0-28-22.6-50.6-50.6-50.6c-37,0-48.8,36.1-52.4,57.8v0.9l-5.4,19.9c16.3,13.5,37,22.6,56.9,22.6
		C400,308.3,424.3,285.7,425.2,257.7z"/>
	<path class="st1" d="M405,0H95C42.5,0,0,42.5,0,95v310c0,52.5,42.5,95,95,95h124.7l43-200.8c-13.5-19-26.2-40.6-36.1-60.5v22.6
		c0,55.1-44.2,99.3-98.4,99.3c-54.2,0-98.4-44.2-98.4-99.3V128.6h48.8v131c0,24.6,18.3,45.9,42.8,48.4c28.4,3,52.9-19.7,52.9-47.6
		V127.7h50.6c9.9,34.3,28,74,50.6,109.2c14.4-49.7,50.6-81.3,98.4-81.3c55.1,0,100.2,45.1,100.2,100.2
		c0,57.8-45.1,102.9-100.2,102.9c-27.1,0-49.7-7.2-69.5-19.9l-33.1,161H405c52.5,0,95-42.5,95-95V95C500,42.5,457.5,0,405,0z"/>
</g>
<g>
	<path class="st2" d="M395,196.6c-36.3,0-47.9,35.4-51.4,56.7v0.9l-5.3,19.5c16,13.3,36.3,22.2,55.8,22.2
		c25.7,0,49.6-22.2,50.5-49.6C444.6,218.8,422.5,196.6,395,196.6z"/>
	<path class="st2" d="M405,0H95C42.5,0,0,42.5,0,95v310c0,52.5,42.5,95,95,95h310c52.5,0,95-42.5,95-95V95C500,42.5,457.5,0,405,0z
		 M394.1,345.5c-26.6,0-48.7-7.1-68.2-19.5l-21.3,105.4h-50.5l31-144.4c-13.3-18.6-25.7-39.9-35.4-59.4v22.2
		c0,54.1-43.4,97.5-96.6,97.5c-53.2,0-96.6-43.4-96.6-97.5V119.5h47.9v129.4c0,25.7,21.3,47,47,47c25.7,0,47-21.3,47-47V118.6h49.6
		c9.7,33.7,27.5,72.7,49.6,107.2c14.2-48.7,49.6-79.8,96.6-79.8c54.1,0,98.4,44.3,98.4,98.4C492.5,301.2,448.2,345.5,394.1,345.5z"
		/>
</g>
</svg>
